<svg id="圖層_1" data-name="圖層 1" xmlns="http://www.w3.org/2000/svg" viewBox="0 0 52.66 14.28"><defs><style>.cls-1{fill:#ffd000;}.cls-2{fill:#7d8e9e;}</style></defs><title>logo</title><path class="cls-1" d="M50.06,23.79a.87.87,0,0,1-.88-.88c0-1.6-3.77-5.37-5.38-5.37a.89.89,0,0,1,0-1.77c1.61,0,5.38-3.77,5.38-5.37a.88.88,0,1,1,1.76,0c0,1.6,3.77,5.37,5.38,5.37a.89.89,0,0,1,0,1.77c-1.61,0-5.38,3.77-5.38,5.37A.87.87,0,0,1,50.06,23.79Zm-3.83-7.14a13.1,13.1,0,0,1,3.83,3.84,13.1,13.1,0,0,1,3.83-3.84,13,13,0,0,1-3.83-3.83A13,13,0,0,1,46.23,16.65Z" transform="translate(-6.15 -9.52)"/><path class="cls-2" d="M26,19.72l.11.88a6.55,6.55,0,0,1-2,.24,2.44,2.44,0,0,1-2.05-.75,4.34,4.34,0,0,1-.6-2.59,4.18,4.18,0,0,1,.6-2.6,2.44,2.44,0,0,1,2.05-.75,7.28,7.28,0,0,1,1.86.21l-.11.9c-.58,0-1.17-.06-1.75-.06a1.22,1.22,0,0,0-1.11.49,4,4,0,0,0-.3,1.82,3.71,3.71,0,0,0,.3,1.83,1.18,1.18,0,0,0,1.11.49C25,19.81,25.59,19.77,26,19.72Zm5.4-1,.58,2H30.76l-.53-2a.71.71,0,0,0-.75-.58H28.32v2.59H27.15V14.24c.56-.05,1.35-.07,2.37-.07a2.79,2.79,0,0,1,1.75.41,1.87,1.87,0,0,1,.5,1.49,1.9,1.9,0,0,1-.28,1.14,1.26,1.26,0,0,1-.94.49v.06a1.19,1.19,0,0,1,.53.3,1,1,0,0,1,.36.64Zm-1.08-1.77a1.12,1.12,0,0,0,.23-.81,1.11,1.11,0,0,0-.23-.8,1.28,1.28,0,0,0-.86-.21H28.33v2.05H29.5A1.21,1.21,0,0,0,30.36,16.93Zm18.09-2.69H43.28v1h2v5.49h1.19V15.24h2Zm3.65.3,1.95,6.17H52.83l-.52-1.84H49.9l-.53,1.84h-1.2l1.94-6.17a.41.41,0,0,1,.43-.32h1.14A.44.44,0,0,1,52.1,14.54ZM52,17.93l-.66-2.24a4.66,4.66,0,0,0-.15-.54H51l-.15.54-.64,2.24Zm6.75,1.82H56.52a.63.63,0,0,1-.44-.11.64.64,0,0,1-.13-.41v-5H54.77V19.4c0,.9.49,1.35,1.46,1.35s2,0,2.58-.08l0-.92Zm-23.46-3a8.1,8.1,0,0,0-.26.79H35c-.13-.41-.23-.67-.26-.79l-1.19-2.52H32.28l2.13,4.29v2.22h1.18V18.53l2.13-4.29H36.49l-1.18,2.52Zm6,.38-1.25-.4a1.14,1.14,0,0,1-.56-.3.78.78,0,0,1-.15-.56c0-.32.07-.53.23-.62a2,2,0,0,1,.86-.13c.56,0,1.22,0,1.94,0l.07-.83a7.94,7.94,0,0,0-2-.23,3.24,3.24,0,0,0-1.73.34c-.34.23-.49.7-.49,1.41a2.16,2.16,0,0,0,.3,1.2,1.84,1.84,0,0,0,1,.68l1.32.41a1.08,1.08,0,0,1,.54.29.86.86,0,0,1,.15.58.8.8,0,0,1-.2.64,1.84,1.84,0,0,1-.87.15l-2.05,0-.07.87a11.32,11.32,0,0,0,2.1.2,3.16,3.16,0,0,0,1.79-.37A1.72,1.72,0,0,0,42.74,19a2.08,2.08,0,0,0-.31-1.2,2.22,2.22,0,0,0-1.11-.68ZM19.12,18.67l-1.71-6.4s0,0-.05,0L11,10.51h-.08l-4.7,4.69s0,0,0,.07l1.71,6.39s0,0,.06.06l6.41,1.71s.06,0,.07,0l4.7-4.68S19.14,18.68,19.12,18.67Zm-6.28-5-1.69,6.28s0,0,0,0L6.53,15.34s0,0,0,0l6.3-1.69S12.84,13.63,12.84,13.65Z" transform="translate(-6.15 -9.52)"/><path class="cls-1" d="M18.06,23.22a.44.44,0,0,1-.44-.44c0-.8-1.89-2.68-2.69-2.68a.45.45,0,0,1,0-.89c.8,0,2.69-1.88,2.69-2.68a.44.44,0,0,1,.88,0c0,.8,1.89,2.68,2.69,2.68a.45.45,0,0,1,0,.89c-.8,0-2.69,1.88-2.69,2.68A.44.44,0,0,1,18.06,23.22Zm-1.92-3.57a6.51,6.51,0,0,1,1.92,1.92A6.51,6.51,0,0,1,20,19.65a6.36,6.36,0,0,1-1.92-1.91A6.36,6.36,0,0,1,16.14,19.65Z" transform="translate(-6.15 -9.52)"/></svg>